<?xml version="1.0" encoding="UTF-8" standalone="no"?>
<!DOCTYPE svg PUBLIC "-//W3C//DTD SVG 1.1//EN" "http://www.w3.org/Graphics/SVG/1.1/DTD/svg11.dtd">
<svg width="100%" height="100%" viewBox="0 0 3000 3000" version="1.1" xmlns="http://www.w3.org/2000/svg" xmlns:xlink="http://www.w3.org/1999/xlink" xml:space="preserve" xmlns:serif="http://www.serif.com/" style="fill-rule:evenodd;clip-rule:evenodd;stroke-linejoin:round;stroke-miterlimit:2;">
    <g transform="matrix(1.78983,0,0,1.78983,-1268.05,-1267.77)">
        <g transform="matrix(3.0925,0,0,3.0925,799.86,801.1)">
            <path d="M492,318L445,291C447,280 448,268 448,256C448,244 447,232 445,221L492,194C498,190 502,182 499,175C488,142 471,112 448,86C445,83 440,81 436,81C433,81 430,82 428,83L381,110C363,95 343,83 320,75L320,21C320,14 315,7 308,5C291,2 274,0 256,0C238,0 222,2 205,5C198,7 192,14 192,21L192,75C170,83 150,95 132,110L85,83C83,82 80,81 77,81C72,81 68,83 65,86C42,112 25,142 14,175C11,182 15,190 21,194L68,221C66,232 64,244 64,256C64,268 66,280 68,291L21,318C15,322 11,330 14,337C25,370 42,400 65,426C68,429 72,431 77,431C80,431 83,430 85,429L132,402C150,417 170,429 192,437L192,491C192,498 198,505 205,507C222,510 239,512 256,512C273,512 291,510 308,507C315,505 320,498 320,491L320,437C343,429 363,417 381,402L428,429C430,430 433,431 436,431C440,431 445,429 448,426C471,400 488,370 499,337C502,330 498,322 492,318ZM256,336C212,336 176,300 176,256C176,212 212,176 256,176C300,176 336,212 336,256C336,300 301,336 256,336Z" style="fill-opacity:0.2;fill-rule:nonzero;"/>
        </g>
        <g transform="matrix(3.0925,0,0,3.0925,706.775,708.321)">
            <path d="M492,318L445,291C447,280 448,268 448,256C448,244 447,232 445,221L492,194C498,190 502,182 499,175C488,142 471,112 448,86C445,83 440,81 436,81C433,81 430,82 428,83L381,110C363,95 343,83 320,75L320,21C320,14 315,7 308,5C291,2 274,0 256,0C238,0 222,2 205,5C198,7 192,14 192,21L192,75C170,83 150,95 132,110L85,83C83,82 80,81 77,81C72,81 68,83 65,86C42,112 25,142 14,175C11,182 15,190 21,194L68,221C66,232 64,244 64,256C64,268 66,280 68,291L21,318C15,322 11,330 14,337C25,370 42,400 65,426C68,429 72,431 77,431C80,431 83,430 85,429L132,402C150,417 170,429 192,437L192,491C192,498 198,505 205,507C222,510 239,512 256,512C273,512 291,510 308,507C315,505 320,498 320,491L320,437C343,429 363,417 381,402L428,429C430,430 433,431 436,431C440,431 445,429 448,426C471,400 488,370 499,337C502,330 498,322 492,318ZM256,336C212,336 176,300 176,256C176,212 212,176 256,176C300,176 336,212 336,256C336,300 301,336 256,336Z" style="fill:rgb(88,101,242);fill-rule:nonzero;"/>
        </g>
    </g>
</svg>
